<svg class="m-auto" version=" 1.0" xmlns="http://www.w3.org/2000/svg" width="80%" height="80%"
        viewBox="0 0 100.000000 100.000000" preserveAspectRatio="xMidYMid meet">
        <metadata>
            Created by potrace 1.10, written by Peter Selinger 2001-2011
        </metadata>
        <g transform="translate(0.000000,100.000000) scale(0.050000,-0.050000)">
            <path fill="#02ad77"
                d="M902 1172 c-173 -96 -101 -372 98 -372 101 0 200 98 200 198 0 150 -166 247 -298 174z"
                class="svg-elem-1" />
            <path fill="#02ad77"
                d="M510 1343 c-141 -213 -141 -473 -1 -685 118 -178 221 -76 119 117 -90 169 -91 277 -7 437 103 196 7 309 -111 131z"
                class="svg-elem-3" />
            <path fill="#02ad77"
                d="M1324 1387 c-15 -26 -3 -66 50 -166 91 -172 88 -303 -12 -464 -74 -120 -66 -167 29 -167 125 0 239 308 193 524 -46 222 -199 382 -260 273z"
                class="svg-elem-3" />
            <path fill="#02ad77"
                d="M218 1635 c-289 -396 -288 -874 1 -1271 51 -70 73 -85 117 -80 74 8 82 79 18 162 -249 328 -250 804 -1 1101 52 62 60 112 23 149 -44 44 -95 25 -158 -61z"
                class="svg-elem-5" />
            <path fill="#02ad77"
                d="M1624 1696 c-37 -37 -29 -82 28 -157 246 -330 244 -764 -6 -1093 -64 -83 -56 -154 18 -162 133 -16 335 417 335 716 0 348 -253 818 -375 696z"
                class="svg-elem-5" />
        </g>
    </svg>