<svg version="1.0" class="m-auto" xmlns="http://www.w3.org/2000/svg" width="80%" height="80%" viewBox="0 0 100.000000 100.000000" preserveAspectRatio="xMidYMid meet">  
        <g transform="translate(0.000000,100.000000) scale(0.100000,-0.100000)" fill="#000000" stroke="none"> 
            <path fill="red" d="M496 814 c-34 -11 -65 -31 -103 -70 -52 -52 -56 -54 -91 -46 -77 17 -154 -28 -168 -98 -4 -19 -16 -32 -36 -41 -41 -17 -86 -81 -94 -136 -13 -86 32 -169 111 -204 36 -17 72 -19 388 -19 291 0 354 3 384 15 50 21 72 42 94 90 45 98 -1 203 -106 241 -26 9 -31 17 -36 56 -15 99 -88 185 -180 212 -64 19 -99 19 -163 0z m-24 -301 l48 -47 50 49 c39 38 52 47 62 37 10 -10 1 -23 -37 -62 l-49 -50 49 -50 c38 -39 47 -52 37 -62 -10 -10 -23 -1 -62 37 l-50 49 -50 -49 c-39 -38 -52 -47 -62 -37 -10 10 -1 23 37 62 l49 50 -48 49 c-27 27 -45 54 -42 60 11 17 17 14 68 -36z"></path> 
        </g> 
</svg>